<svg xmlns="http://www.w3.org/2000/svg" width="975.085" height="961.607" viewBox="0 0 975.085 961.607">
  <g id="Group_1" data-name="Group 1" transform="translate(95.591 153.19)">
    <path id="Layer_33" data-name="Layer 33" d="M1452.347,2794.946a34.493,34.493,0,0,0-8.873,47.944l351.637,511.349a34.493,34.493,0,0,0,47.943,8.873l554.5-381.31a34.493,34.493,0,0,0,8.873-47.943l-351.636-511.349a34.494,34.494,0,0,0-47.944-8.873Z" transform="translate(-1533 -2560.76)" fill="#d1c4e9"/>
    <path id="Layer_34" data-name="Layer 34" d="M1481.133,2754.712a31.736,31.736,0,0,0-16.512,41.711l226.79,524.012a31.736,31.736,0,0,0,41.711,16.512l568.232-245.928a31.737,31.737,0,0,0,16.512-41.711L2091.076,2525.3a31.736,31.736,0,0,0-41.711-16.512Z" transform="translate(-1533 -2560.76)" fill="#e9e7f5"/>
  </g>
</svg>
