<svg xmlns="http://www.w3.org/2000/svg" viewBox="0 0 669 983" width="669" height="983">
	<defs>
		<clipPath clipPathUnits="userSpaceOnUse" id="cp1">
			<path d="M1900 -3584L0 -3584L0 1281.45L1900 1281.45L1900 -3584Z" />
		</clipPath>
	</defs>
	<style>
		tspan { white-space:pre }
		.shp0 { fill: #d1c4e9 } 
		.shp1 { fill: #e9e7f5 } 
	</style>
	<g id="Artboard1" clip-path="url(#cp1)">
		<g id="Layer 50">
			<g id="Layer 44" style="opacity: 0.498">
				<g id="Layer 39">
					<path id="Layer 37" class="shp0" d="M241.46 13.26C229.59 -1.61 207.88 -4.05 193.01 7.82L-291.97 395.02C-306.84 406.9 -309.28 428.61 -297.4 443.48L122.47 969.38C134.34 984.25 156.05 986.68 170.92 974.81L655.9 587.61C670.77 575.74 673.21 554.03 661.33 539.16L241.46 13.26Z" />
					<path id="Layer 38" class="shp1" d="M283.64 39.1C275.56 23.57 256.39 17.52 240.86 25.6L-265.65 289.18C-281.18 297.26 -287.23 316.43 -279.14 331.96L6.67 881.21C14.75 896.74 33.92 902.79 49.45 894.71L555.96 631.13C571.49 623.05 577.54 603.88 569.46 588.35L283.64 39.1Z" />
				</g>
			</g>
		</g>
	</g>
</svg>