<?xml version="1.0" encoding="UTF-8" standalone="no"?><!DOCTYPE svg PUBLIC "-//W3C//DTD SVG 1.1//EN" "http://www.w3.org/Graphics/SVG/1.1/DTD/svg11.dtd"><svg width="100%" height="100%" viewBox="0 0 428 134" version="1.1" xmlns="http://www.w3.org/2000/svg" xmlns:xlink="http://www.w3.org/1999/xlink" xml:space="preserve" xmlns:serif="http://www.serif.com/" style="fill-rule:evenodd;clip-rule:evenodd;stroke-linejoin:round;stroke-miterlimit:2;"><g><path d="M173.881,90.635c-0.291,0.341 -0.592,0.678 -0.903,1.011c-5.092,5.468 -11.638,8.202 -19.637,8.202c-8.032,0 -14.594,-2.734 -19.686,-8.202c-5.092,-5.468 -7.638,-11.857 -7.638,-19.169c0,-7.248 2.41,-13.534 7.229,-18.857c5.301,-5.869 11.999,-8.804 20.095,-8.804c8.063,0 14.746,2.919 20.047,8.755c4.813,5.317 7.222,11.61 7.228,18.878l0,0l0,29.754c0,7.344 -0.641,12.716 -1.924,16.116c-1.764,4.81 -4.827,8.514 -9.188,11.112c-4.362,2.597 -9.605,3.896 -15.73,3.896c-4.49,0 -8.523,-0.635 -12.099,-1.906c-3.576,-1.27 -6.486,-2.975 -8.731,-5.114c-2.245,-2.139 -4.313,-5.267 -6.205,-9.383l7.312,-0c1.99,3.463 4.559,6.029 7.706,7.696c3.146,1.668 7.048,2.502 11.703,2.502c4.592,-0 8.469,-0.855 11.632,-2.565c3.163,-1.71 5.418,-3.86 6.767,-6.449c1.348,-2.588 2.022,-6.768 2.022,-12.537l0,-14.936Zm-20.564,-39.228c-5.6,-0 -10.411,2.068 -14.434,6.205c-4.023,4.137 -6.035,9.14 -6.035,15.009c0,3.784 0.917,7.312 2.752,10.583c1.834,3.271 4.312,5.797 7.434,7.576c3.122,1.78 6.55,2.67 10.283,2.67c3.733,0 7.16,-0.89 10.282,-2.67c3.122,-1.779 5.6,-4.305 7.434,-7.576c1.835,-3.271 2.752,-6.799 2.752,-10.583c0,-5.869 -2.019,-10.872 -6.058,-15.009c-4.039,-4.137 -8.843,-6.205 -14.41,-6.205Z" style="fill:#00b48d;fill-rule:nonzero;"/><path d="M224.747,44.816c8.064,0 14.746,2.919 20.047,8.755c4.819,5.324 7.229,11.626 7.229,18.906c-0,7.312 -2.546,13.701 -7.638,19.169c-5.092,5.468 -11.638,8.202 -19.638,8.202c-8.031,0 -14.593,-2.734 -19.685,-8.202c-5.092,-5.468 -7.638,-11.857 -7.638,-19.169c-0,-7.248 2.409,-13.534 7.228,-18.857c5.302,-5.869 12,-8.804 20.095,-8.804Zm-0.024,6.591c-5.599,-0 -10.411,2.068 -14.434,6.205c-4.023,4.137 -6.034,9.14 -6.034,15.009c-0,3.784 0.917,7.312 2.752,10.583c1.834,3.271 4.312,5.797 7.434,7.576c3.122,1.78 6.549,2.67 10.282,2.67c3.734,0 7.161,-0.89 10.283,-2.67c3.122,-1.779 5.6,-4.305 7.434,-7.576c1.835,-3.271 2.752,-6.799 2.752,-10.583c0,-5.869 -2.019,-10.872 -6.059,-15.009c-4.039,-4.137 -8.842,-6.205 -14.41,-6.205Z" style="fill:#00b48d;fill-rule:nonzero;"/><path d="M270.563,0l40.552,0l-0,6.927l-33.481,0l-0,39.236l33.192,0l0,6.927l-33.192,0l-0,38.484l33.192,0l0,6.927l-40.263,0l-0,-98.501Z" style="fill:#00b48d;fill-rule:nonzero;"/><path d="M330.713,46.163l38.436,0l-29.633,46.373l28.67,0l0,5.965l-40.263,0l29.605,-46.421l-26.815,0l-0,-5.917Z" style="fill:#00b48d;fill-rule:nonzero;"/><path d="M388.746,46.163l38.436,0l-29.632,46.373l28.67,0l0,5.965l-40.264,0l29.606,-46.421l-26.816,0l0,-5.917Z" style="fill:#00b48d;fill-rule:nonzero;"/><path d="M66.61,118.255c-5.765,2.466 -12.112,3.832 -18.775,3.832c-26.401,-0 -47.835,-21.434 -47.835,-47.835c-0,-26.401 21.434,-47.835 47.835,-47.835c26.401,-0 47.835,21.434 47.835,47.835c-0,16.74 -8.618,31.483 -21.655,40.032c0.348,-2.756 0.522,-6.046 0.522,-9.871l-0,-29.754l-0,-0c-0.006,-7.269 -2.416,-13.561 -7.229,-18.878c-5.301,-5.837 -11.983,-8.755 -20.047,-8.755c-8.095,-0 -14.794,2.934 -20.095,8.803c-4.819,5.324 -7.228,11.609 -7.228,18.857c-0,7.312 2.546,13.702 7.638,19.17c5.092,5.468 11.654,8.202 19.685,8.202c8,-0 14.545,-2.734 19.638,-8.202c0.31,-0.334 0.611,-0.671 0.903,-1.011l0,14.935c0,4.429 -0.397,7.921 -1.192,10.475Zm-19.373,-64.639c-5.599,0 -10.411,2.069 -14.434,6.206c-4.023,4.137 -6.034,9.14 -6.034,15.008c-0,3.785 0.917,7.312 2.751,10.583c1.835,3.272 4.313,5.797 7.435,7.577c3.122,1.78 6.549,2.67 10.282,2.67c3.733,-0 7.161,-0.89 10.283,-2.67c3.121,-1.78 5.6,-4.305 7.434,-7.577c1.835,-3.271 2.752,-6.798 2.752,-10.583c-0,-5.868 -2.02,-10.871 -6.059,-15.008c-4.039,-4.137 -8.842,-6.206 -14.41,-6.206Z" style="fill:#00b48d;"/><clipPath id="_clip1"><path d="M66.61,118.255c-5.765,2.466 -12.112,3.832 -18.775,3.832c-26.401,-0 -47.835,-21.434 -47.835,-47.835c-0,-26.401 21.434,-47.835 47.835,-47.835c26.401,-0 47.835,21.434 47.835,47.835c-0,16.74 -8.618,31.483 -21.655,40.032c0.348,-2.756 0.522,-6.046 0.522,-9.871l-0,-29.754l-0,-0c-0.006,-7.269 -2.416,-13.561 -7.229,-18.878c-5.301,-5.837 -11.983,-8.755 -20.047,-8.755c-8.095,-0 -14.794,2.934 -20.095,8.803c-4.819,5.324 -7.228,11.609 -7.228,18.857c-0,7.312 2.546,13.702 7.638,19.17c5.092,5.468 11.654,8.202 19.685,8.202c8,-0 14.545,-2.734 19.638,-8.202c0.31,-0.334 0.611,-0.671 0.903,-1.011l0,14.935c0,4.429 -0.397,7.921 -1.192,10.475Zm-19.373,-64.639c-5.599,0 -10.411,2.069 -14.434,6.206c-4.023,4.137 -6.034,9.14 -6.034,15.008c-0,3.785 0.917,7.312 2.751,10.583c1.835,3.272 4.313,5.797 7.435,7.577c3.122,1.78 6.549,2.67 10.282,2.67c3.733,-0 7.161,-0.89 10.283,-2.67c3.121,-1.78 5.6,-4.305 7.434,-7.577c1.835,-3.271 2.752,-6.798 2.752,-10.583c-0,-5.868 -2.02,-10.871 -6.059,-15.008c-4.039,-4.137 -8.842,-6.206 -14.41,-6.206Z"/></clipPath><g clip-path="url(#_clip1)"><circle cx="47.835" cy="74.252" r="11.593" style="fill:#fff;"/></g></g></svg>